<?xml version="1.0" encoding="utf-8"?>
<!-- Generator: Adobe Illustrator 27.0.0, SVG Export Plug-In . SVG Version: 6.00 Build 0)  -->
<svg version="1.1" xmlns="http://www.w3.org/2000/svg" xmlns:xlink="http://www.w3.org/1999/xlink" x="0px" y="0px"
	 viewBox="0 0 477.4 477.4" style="enable-background:new 0 0 477.4 477.4;" xml:space="preserve">
<style type="text/css">
	.st0{display:none;}
	.st1{display:inline;}
	.st2{fill:none;stroke:#221F1F;stroke-miterlimit:10;}
	.st3{fill:#2B2B2B;}
</style>
<g id="Layer_1" class="st0">
	<g class="st1">
		<path class="st2" d="M311,278.2L278.2,311c-4.3,4.3-10.2,6.8-16.3,6.8h-46.4c-6.1,0-12-2.4-16.3-6.8l-32.8-32.8
			c-4.3-4.3-6.8-10.2-6.8-16.3v-46.4c0-6.1,2.4-12,6.8-16.3l32.8-32.8c4.3-4.3,10.2-6.8,16.3-6.8h46.4c6.1,0,12,2.4,16.3,6.8
			l32.8,32.8c4.3,4.3,6.8,10.2,6.8,16.3v0.1c0,12.7,10.3,23.1,23.1,23.1l45.9,0.1c12.8,0,23.2-10.3,23.2-23.1v-38.4
			c0-6.1-2.4-12-6.8-16.3l-86.7-86.7c-4.3-4.3-10.2-6.8-16.3-6.8H177.4c-6.1,0-12,2.4-16.3,6.8L74.3,161c-4.3,4.3-6.8,10.2-6.8,16.3
			V300c0,6.1,2.4,12,6.8,16.3l86.7,86.7c4.3,4.3,10.2,6.8,16.3,6.8H300c6.1,0,12-2.4,16.3-6.8l86.7-86.7c4.3-4.3,6.8-10.2,6.8-16.3
			v-38c0-12.7-10.3-23.1-23.1-23.1l-45.9-0.1c-12.8,0-23.2,10.3-23.2,23.1v0C317.8,268,315.3,273.9,311,278.2z"/>
		<line class="st2" x1="317.8" y1="214.5" x2="317.8" y2="261.9"/>
		<line class="st2" x1="409.9" y1="215" x2="409.9" y2="262.4"/>
	</g>
</g>
<g id="Layer_2">
	<path class="st3" d="M182.5,338.5l-55.6-96.4c-1-1.6-1-3.7,0-5.3l55.6-96.4c1-1.6,2.7-2.7,4.6-2.7l111.3,0c1.9,0,3.7,1,4.6,2.7
		l55.6,96.4c1,1.6,2.7,2.7,4.6,2.7l73.3,0c4.1,0,6.7-4.4,4.6-8L345.8,66.2c-1-1.6-2.7-2.7-4.6-2.7l-196.9,0c-1.9,0-3.7,1-4.6,2.7
		L41.2,236.8c-1,1.6-1,3.7,0,5.3l98.5,170.5c1,1.6,2.7,2.7,4.6,2.7l190.8,0c4.1,0,6.7-4.4,4.6-8L303,343.8c-1-1.6-2.7-2.7-4.6-2.7
		l-111.3,0C185.2,341.1,183.4,340.1,182.5,338.5z"/>
</g>
</svg>
