<?xml version="1.0" encoding="UTF-8"?>
<svg id="Layer_1" xmlns="http://www.w3.org/2000/svg" version="1.1" viewBox="0 0 300 300">
  <!-- Generator: Adobe Illustrator 29.8.1, SVG Export Plug-In . SVG Version: 2.1.1 Build 2)  -->
  <defs>
    <style>
      .st0 {
        fill: none;
      }
    </style>
  </defs>
  <path class="st0" d="M300,71v229H0V0h300v55c-2.97-.48-3.38-4.13-5.99-6.51-12.3-11.28-32.16-1.32-32.09,15.01.07,15.99,20.16,24.69,32.09,14.02,2.34-2.1,3.27-4.99,5.98-6.52ZM68.5,84c6.29-1.65,19.39,1.22,26.5,0v71.5l2.47,1.49c19.9-17.36,42.4-31.21,64.53-45.49v-62.5c.98.32,2.17-1,2.5-1h25.5l.24,45.38,2.25,2.41,53.51-22.8c1.07-1.27-5.15-9.38-6.49-11C181.05-8.56,68.85-.17,21.58,78.08c-24.72,40.93-25.94,98.1,0,138.84,1.66,2.61,5.47,9.67,8.85,9.15,5.08-6.86,10.42-14.73,16.06-21.09,3.87-4.36,19.4-17.67,20.3-21.7l-.38-96.83c.11-.69,1.66-2.34,2.09-2.45ZM191,107.5v137l-1.5,1.5h-26l-1.5-1.5v-113.5c-3.23.16-7.47,4.18-10.06,6.47-29.83,26.33-56.64,60.16-76.11,94.86-2.12,3.79-13.44,24.12-12.37,26.65,41.57,29.86,101.67,28.46,144.46,1.44,56.49-35.68,78.42-110.18,48.94-170.77-1.32-2.71-6.52-13.7-9.33-13.65-19.81,8.69-39.1,18.65-56.52,31.51Z"/>
  <path d="M300,71c-2.71,1.53-3.64,4.42-5.98,6.52-11.93,10.67-32.02,1.97-32.09-14.02-.07-16.33,19.78-26.29,32.09-15.01,2.61,2.39,3.01,6.03,5.99,6.51v16Z"/>
  <path d="M68.5,84c-.43.11-1.98,1.77-2.09,2.45l.38,96.83c-.91,4.02-16.44,17.33-20.3,21.7-5.64,6.36-10.98,14.23-16.06,21.09-3.38.52-7.18-6.54-8.85-9.15-25.93-40.74-24.72-97.91,0-138.84C68.85-.17,181.05-8.56,239.51,61.99c1.34,1.62,7.56,9.73,6.49,11l-53.51,22.8-2.25-2.41-.24-45.38h-25.5c-.33,0-1.52,1.32-2.5,1v62.5c-22.12,14.28-44.63,28.13-64.53,45.49l-2.47-1.49v-71.5c-7.11,1.22-20.21-1.65-26.5,0Z"/>
  <path d="M191,107.5c17.43-12.86,36.71-22.82,56.52-31.51,2.81-.05,8.02,10.94,9.33,13.65,29.48,60.6,7.55,135.09-48.94,170.77-42.78,27.02-102.89,28.42-144.46-1.44-1.07-2.53,10.24-22.86,12.37-26.65,19.47-34.7,46.28-68.54,76.11-94.86,2.59-2.29,6.83-6.3,10.06-6.47v113.5l1.5,1.5h26l1.5-1.5V107.5Z"/>
</svg>