<svg width="274" height="300" viewBox="0 0 274 300" fill="none" xmlns="http://www.w3.org/2000/svg">
<path d="M273.491 265.613V300H239.065V293.401C247.622 288.551 261.844 280.72 268.975 265.574L273.491 265.613Z" fill="black"/>
<path d="M144.672 68.625V118.841C144.635 118.855 144.599 118.869 144.562 118.883C143.543 119.266 142.493 119.66 142.41 119.693L142.408 119.694L141.592 120.022L141.588 120.024C124.305 127.068 109.475 139.103 98.9766 154.616C88.4788 170.129 82.7872 188.417 82.6094 207.166L82.6055 208.059C82.6057 233.249 92.5542 257.413 110.266 275.23C122.257 287.292 137.141 295.777 153.28 300H72.3555C32.4056 300 5.99696e-05 264.3 0 220.318V0L144.672 68.625ZM180.079 299.987C180.511 299.994 180.943 299.999 181.376 300H180.08L180.079 299.987ZM176.814 299.878L174.945 299.819C152.732 298.456 131.569 288.524 115.771 272.583C98.7769 255.434 89.2452 232.195 89.2773 207.979C89.2799 189.936 94.5955 172.304 104.541 157.306L104.26 157.743C94.9406 172.372 89.9085 189.362 89.7588 206.761C89.9316 188.535 95.4629 170.761 105.666 155.684C105.965 155.242 106.267 154.802 106.573 154.366C116.718 140.295 130.659 129.413 146.767 123.024L146.778 123.02L146.789 123.015L156.341 118.952L157.114 118.623C165.053 116.409 173.269 115.287 181.538 115.3H183.565C188.026 115.368 192.475 115.79 196.869 116.564C218.261 120.21 237.677 131.362 251.673 148.04C265.669 164.718 273.338 185.844 273.321 207.67C273.31 229.475 265.627 250.573 251.634 267.226C237.641 283.878 218.24 295.011 196.869 298.653C191.805 299.524 186.676 299.961 181.538 299.959C157.195 299.959 133.85 290.232 116.637 272.917C99.7547 255.934 90.1282 233.017 89.7646 209.039C90.1168 232.98 99.7041 255.872 116.536 272.856C132.64 289.107 154.141 298.703 176.814 299.878Z" fill="black"/>
</svg>
