<svg width="271" height="300" viewBox="0 0 271 300" fill="none" xmlns="http://www.w3.org/2000/svg">
<path d="M270.491 265.613V300H236.065V293.401C244.622 288.551 258.844 280.72 265.975 265.574L270.491 265.613Z" fill="black"/>
<path d="M144.672 68.625V118.841C144.635 118.855 144.599 118.869 144.562 118.883C143.543 119.266 142.493 119.66 142.41 119.693L142.408 119.694L141.592 120.022L141.588 120.024C124.305 127.068 109.475 139.103 98.9766 154.616C88.4788 170.129 82.7872 188.417 82.6094 207.166L82.6055 208.059V208.06C82.6057 233.25 92.5542 257.413 110.266 275.23C122.257 287.292 137.141 295.777 153.28 300H72.3555C32.4056 300 5.99696e-05 264.3 0 220.318V0L144.672 68.625ZM177.079 299.987C177.511 299.994 177.943 299.999 178.376 300H177.08L177.079 299.987ZM173.814 299.878L171.945 299.819C149.732 298.456 128.569 288.524 112.771 272.583C95.7769 255.434 86.2452 232.195 86.2773 207.979V207.978C86.2799 189.935 91.5955 172.304 101.541 157.306L101.26 157.743C91.9406 172.372 86.9085 189.362 86.7588 206.761C86.9316 188.535 92.4629 170.761 102.666 155.684C102.965 155.242 103.267 154.802 103.573 154.366C113.718 140.295 127.659 129.413 143.767 123.024L143.778 123.02L143.789 123.015L153.341 118.952L154.114 118.623C162.053 116.409 170.269 115.287 178.538 115.3H180.565C185.026 115.368 189.475 115.79 193.869 116.564C215.261 120.21 234.677 131.362 248.673 148.04C262.669 164.718 270.338 185.844 270.321 207.67C270.31 229.475 262.627 250.573 248.634 267.226C234.641 283.878 215.24 295.011 193.869 298.653C188.805 299.524 183.676 299.961 178.538 299.959C154.195 299.959 130.85 290.232 113.637 272.917C96.7547 255.934 87.1282 233.017 86.7646 209.039C87.1168 232.98 96.7041 255.872 113.536 272.856C129.64 289.107 151.141 298.703 173.814 299.878Z" fill="black"/>
</svg>
