<?xml version="1.0" encoding="UTF-8"?>
<svg id="Layer_1" xmlns="http://www.w3.org/2000/svg" version="1.1" viewBox="0 0 300 300">
  <!-- Generator: Adobe Illustrator 29.8.1, SVG Export Plug-In . SVG Version: 2.1.1 Build 2)  -->
  <defs>
    <style>
      .st0 {
        fill: none;
      }
    </style>
  </defs>
  <path d="M195,0l.5,181,3.96,2.04,100.55-.05v117h-117l-.94-103.56-182.06-.44V0h195ZM14.5,13l-1.5,1.5v164c0,.91-.58,4.5,1.5,4.5h166c.17,0,1.76-1.54,1.98-2.02V15.02c-.22-.47-1.81-2.02-1.98-2.02H14.5ZM287,196h-90.5l-1.55,3.45,1.05,87.55h91v-91Z"/>
  <path class="st0" d="M14.5,13h166c.17,0,1.76,1.54,1.98,2.02v165.97c-.22.47-1.81,2.02-1.98,2.02H14.5c-2.08,0-1.5-3.59-1.5-4.5V14.5l1.5-1.5ZM80.65,77.65c22.57-23.73-14.09-56.76-37.18-33.68-22.92,22.91,14.6,57.42,37.18,33.68ZM134.81,36.23c-22.27,1.57-32.24,29.48-14.28,43.74,10.46,8.31,28.53,6.89,35.43-5.37l-8.63-6.47c-1.71-.15-4.82,4.24-7.87,4.81-21.48,4.04-16.8-31.88,1.56-23.45,1.87.86,3.68,3.13,4.69,3.4,1.87.49,10.58-5.84,10.26-7.32-5.26-5.97-12.98-9.92-21.15-9.34ZM71.76,151.25c1.7,2.01-.23,5.72,5.8,6.69,3.66.59,10.89,1.17,9.26-4.19-7.24-11-10.51-30.41-17.38-40.67-3.05-4.55-7.29-.99-11.83-2.83l-3.81,4.07-17.8,42.15c.71,2.46,10.47,1.83,12.77.88,2.75-1.13,1.12-6.42,5.75-7.31,2.54-.49,15.87-.39,17.24,1.22ZM114,111v45.5l1.5,1.5h18c1.49,0,7.91-1.61,9.77-2.23,18.05-6.01,20.98-31.39,4.65-41.19-1.24-.74-6.6-3.58-7.42-3.58h-26.5Z"/>
  <path class="st0" d="M287,196v91h-91l-1.05-87.55,1.55-3.45h90.5ZM235.32,251.69c-4.99-5.45-.69-23.35-2.76-30.75-1.04-1.49-11.01-1.52-12.15.02,2.13,18.1-6.29,44.6,21.09,44.12,12.67-.22,19.46-7.16,20.52-19.54.28-3.31.41-24.14-.97-25.1l-11.63.5c-2.09,7.17,1.97,24.57-1.96,30.04-2.74,3.81-9,4.16-12.16.71Z"/>
  <path d="M114,111h26.5c.82,0,6.18,2.84,7.42,3.58,16.34,9.8,13.41,35.18-4.65,41.19-1.86.62-8.28,2.23-9.77,2.23h-18l-1.5-1.5v-45.5ZM128.71,122.21c-4.02,1.2-1.69,4.5-1.66,7.25.04,4.88.1,9.78-.53,14.6,10.12,6.23,22.05-2.91,17.93-15.01-1.75-5.15-10.66-8.36-15.74-6.84Z"/>
  <path d="M80.65,77.65c-22.58,23.74-60.1-10.77-37.18-33.68,23.09-23.08,59.75,9.95,37.18,33.68ZM54.36,70.64c9.57,8.72,24.88-3.04,17.84-16.34-8.78-16.59-32.56,2.94-17.84,16.34Z"/>
  <path d="M71.76,151.25c-1.37-1.61-14.7-1.71-17.24-1.22-4.63.9-3,6.18-5.75,7.31-2.29.95-12.06,1.58-12.77-.88l17.8-42.15,3.81-4.07c4.54,1.84,8.78-1.72,11.83,2.83,6.87,10.26,10.14,29.68,17.38,40.67,1.63,5.37-5.6,4.78-9.26,4.19-6.03-.97-4.09-4.67-5.8-6.69ZM62.99,128c-2.51-1.88-6.65,11.36-5.98,11.99h9.99s-4.01-11.99-4.01-11.99Z"/>
  <path d="M134.81,36.23c8.18-.58,15.89,3.37,21.15,9.34.32,1.48-8.39,7.81-10.26,7.32-1.01-.26-2.82-2.54-4.69-3.4-18.36-8.42-23.04,27.49-1.56,23.45,3.05-.57,6.16-4.96,7.87-4.81l8.63,6.47c-6.9,12.26-24.97,13.67-35.43,5.37-17.96-14.26-7.98-42.17,14.28-43.74Z"/>
  <path d="M235.32,251.69c3.16,3.45,9.42,3.11,12.16-.71,3.93-5.47-.13-22.87,1.96-30.04l11.63-.5c1.39.96,1.26,21.79.97,25.1-1.06,12.37-7.85,19.32-20.52,19.54-27.39.48-18.96-26.02-21.09-44.12,1.14-1.54,11.11-1.51,12.15-.02,2.06,7.39-2.24,25.3,2.76,30.75Z"/>
  <path class="st0" d="M128.71,122.21c5.08-1.52,13.99,1.7,15.74,6.84,4.12,12.09-7.82,21.24-17.93,15.01.63-4.82.57-9.72.53-14.6-.02-2.75-2.36-6.05,1.66-7.25Z"/>
  <path class="st0" d="M54.36,70.64c-14.72-13.4,9.06-32.93,17.84-16.34,7.04,13.3-8.27,25.05-17.84,16.34Z"/>
  <path class="st0" d="M62.99,128l4.01,11.99h-9.99c-.67-.63,3.47-13.87,5.98-11.99Z"/>
</svg>