<?xml version="1.0" encoding="UTF-8"?>
<svg id="Layer_1" data-name="Layer 1" xmlns="http://www.w3.org/2000/svg" viewBox="0 0 300 300">
  <defs>
    <style>
      .cls-1 { fill: #fff; }
    </style>
  </defs>
  <path class="cls-1" d="M200.57,29.44C150.59,2.32,89.45,20.41,61.34,69.34l-3.33,8.66c9.34-7.61,18.26-15.04,29.45-20.04,81.05-36.14,167.41,38.09,142.29,123.29-.41,1.39-1.79,1.93.73,1.74,39.5-48.59,24.81-123.86-29.92-153.55ZM131,74.01c-39.18-6.31-79.76,13.39-100.42,47.06-30.08,49.04-14.57,114.47,35.92,142.93,13.84,7.8,38.2,14.99,54.05,14.02,1.49-.09,8.46-1.05,8.44-2.53-7.19-2.7-14.51-5.06-21.35-8.63-51.88-27.08-70.08-93.02-40.99-143.74,12.52-21.83,37.68-42.8,62.85-47.17,1.3-.22,3.11-.31,1.51-1.95ZM86.5,153c3.9.97,11.14-.71,15.5,0,.63,2.89-1.46,4.92-1.8,7.47-1.33,9.81.79,24.15,4.33,33.5.61,1.62,1.92,5.26,3.47,6.02v-19.5c0-.19,1.23-.83,1.43-1.57,8.73-33.43,47.47-46.49,78.85-40.7l16.72,5.28-57.36-54.43-62.15,61.92c-.94.54.74,1.94,1.01,2.01ZM247.42,255.42c31.52-25.83,45.58-66.75,35.32-106.65-3.59-13.97-11.09-25.79-18.75-37.76-1.95-.16-.75,1.98-.5,3,19.8,80.43-50.34,151.59-130.64,126.65-16.65-5.17-30.54-14.6-42.83-26.66,4.75,15.07,16.08,29.37,27.97,39.52,36.71,31.33,91.91,32.65,129.43,1.9ZM165.31,154.31c-2.87,2.07-2.91,12.84-2.28,16.16,1.47,7.8,20.48,7.8,21.95,0,.61-3.25.55-12.99-1.42-15.59-2.07-2.73-15.55-2.52-18.25-.57Z"/>
  <path d="M131,74.01c1.59,1.65-.22,1.73-1.51,1.95-25.17,4.37-50.33,25.34-62.85,47.17-29.09,50.72-10.89,116.66,40.99,143.74,6.84,3.57,14.16,5.93,21.35,8.63.02,1.48-6.95,2.44-8.44,2.53-15.84.96-40.21-6.23-54.05-14.02C16.01,235.55.5,170.12,30.58,121.08c20.65-33.68,61.24-53.37,100.42-47.06Z"/>
  <path d="M247.42,255.42c-37.52,30.75-92.72,29.43-129.43-1.9-11.9-10.15-23.23-24.45-27.97-39.52,12.29,12.06,26.18,21.49,42.83,26.66,80.3,24.94,150.44-46.22,130.64-126.65-.25-1.02-1.45-3.16.5-3,7.66,11.97,15.16,23.79,18.75,37.76,10.26,39.9-3.8,80.82-35.32,106.65Z"/>
  <path d="M200.57,29.44c54.72,29.69,69.42,104.96,29.92,153.55-2.53.2-1.15-.34-.73-1.74,25.12-85.2-61.24-159.43-142.29-123.29-11.2,4.99-20.12,12.42-29.45,20.04l3.33-8.66C89.45,20.41,150.59,2.32,200.57,29.44Z"/>
  <path d="M108,200c-1.55-.77-2.86-4.41-3.47-6.02-3.54-9.36-5.66-23.7-4.33-33.5.35-2.55,2.43-4.58,1.8-7.47-4.36-.71-11.6.97-15.5,0-.27-.07-1.95-1.47-1.01-2.01l62.15-61.92,57.36,54.43-16.72-5.28c-31.38-5.79-70.12,7.27-78.85,40.7"/>
  <path d="M165.31,154.31c2.7-1.95,16.17-2.16,18.25.57s2.03,12.34,1.42,15.59c-1.47,7.8-20.48,7.8-21.95,0-.62-3.32-.59-14.09,2.28-16.16Z"/>
</svg>
