<svg id="Layer_1" xmlns="http://www.w3.org/2000/svg" viewBox="0 0 285.23 249.92">
  <defs>
    <style>.cls-1{fill:#221f1f;stroke-width:0px;}</style>
  </defs>
  <path class="cls-1" d="M100.88,195.34l-39.54-68.49c-.68-1.17-.68-2.61,0-3.79l39.54-68.49c.68-1.17,1.93-1.89,3.28-1.89h79.09c1.35,0,2.6.72,3.28,1.89l39.54,68.49c.68,1.17,1.93,1.89,3.28,1.89h52.09c2.91,0,4.73-3.15,3.28-5.68L216.94,1.89C216.27.72,215.02,0,213.67,0H73.75c-1.35,0-2.6.72-3.28,1.89L.51,123.07c-.68,1.17-.68,2.61,0,3.79l69.96,121.17c.68,1.17,1.93,1.89,3.28,1.89h135.55c2.91,0,4.73-3.15,3.28-5.68l-26.05-45.11c-.68-1.17-1.93-1.89-3.28-1.89h-79.09c-1.35,0-2.6-.72-3.28-1.89Z"/>
</svg>
