<?xml version="1.0" encoding="UTF-8"?>
<svg id="Modular_Grid" data-name="Modular Grid" xmlns="http://www.w3.org/2000/svg" xmlns:xlink="http://www.w3.org/1999/xlink" viewBox="0 0 4000 4000">
  <defs>
    <style>
      .cls-1 {
        stroke: #bababa;
        stroke-dasharray: 0 11;
      }

      .cls-1, .cls-2, .cls-3 {
        fill: none;
      }

      .cls-1, .cls-3 {
        stroke-miterlimit: 10;
      }

      .cls-4 {
        clip-path: url(#clippath);
      }

      .cls-2, .cls-5 {
        stroke-width: 0px;
      }

      .cls-3 {
        stroke: #eaeaea;
        stroke-width: 2px;
      }
    </style>
    <clipPath id="clippath">
      <rect class="cls-2" width="4000" height="4000"/>
    </clipPath>
  </defs>
  <rect class="cls-5" width="4000" height="4000"/>
  <g class="cls-4">
    <g>
      <g>
        <rect class="cls-1" width="200" height="200"/>
        <rect class="cls-1" x="200" width="200" height="200"/>
        <rect class="cls-1" x="400" width="200" height="200"/>
        <rect class="cls-1" x="600" width="200" height="200"/>
        <rect class="cls-1" x="800" width="200" height="200"/>
        <rect class="cls-1" x="1000" width="200" height="200"/>
        <rect class="cls-1" x="1200" width="200" height="200"/>
        <rect class="cls-1" x="1400" width="200" height="200"/>
        <rect class="cls-1" x="1600" width="200" height="200"/>
        <rect class="cls-1" x="1800" width="200" height="200"/>
        <rect class="cls-1" x="2000" width="200" height="200"/>
        <rect class="cls-1" x="2200" width="200" height="200"/>
        <rect class="cls-1" x="2400" width="200" height="200"/>
        <rect class="cls-1" x="2600" width="200" height="200"/>
        <rect class="cls-1" x="2800" width="200" height="200"/>
        <rect class="cls-1" x="3000" width="200" height="200"/>
        <rect class="cls-1" x="3200" width="200" height="200"/>
        <rect class="cls-1" x="3400" width="200" height="200"/>
        <rect class="cls-1" x="3600" width="200" height="200"/>
        <rect class="cls-1" x="3800" width="200" height="200"/>
        <rect class="cls-1" y="200" width="200" height="200"/>
        <rect class="cls-1" x="200" y="200" width="200" height="200"/>
        <rect class="cls-1" x="400" y="200" width="200" height="200"/>
        <rect class="cls-1" x="600" y="200" width="200" height="200"/>
        <rect class="cls-1" x="800" y="200" width="200" height="200"/>
        <rect class="cls-1" x="1000" y="200" width="200" height="200"/>
        <rect class="cls-1" x="1200" y="200" width="200" height="200"/>
        <rect class="cls-1" x="1400" y="200" width="200" height="200"/>
        <rect class="cls-1" x="1600" y="200" width="200" height="200"/>
        <rect class="cls-1" x="1800" y="200" width="200" height="200"/>
        <rect class="cls-1" x="2000" y="200" width="200" height="200"/>
        <rect class="cls-1" x="2200" y="200" width="200" height="200"/>
        <rect class="cls-1" x="2400" y="200" width="200" height="200"/>
        <rect class="cls-1" x="2600" y="200" width="200" height="200"/>
        <rect class="cls-1" x="2800" y="200" width="200" height="200"/>
        <rect class="cls-1" x="3000" y="200" width="200" height="200"/>
        <rect class="cls-1" x="3200" y="200" width="200" height="200"/>
        <rect class="cls-1" x="3400" y="200" width="200" height="200"/>
        <rect class="cls-1" x="3600" y="200" width="200" height="200"/>
        <rect class="cls-1" x="3800" y="200" width="200" height="200"/>
        <rect class="cls-1" y="400" width="200" height="200"/>
        <rect class="cls-1" x="200" y="400" width="200" height="200"/>
        <rect class="cls-1" x="400" y="400" width="200" height="200"/>
        <rect class="cls-1" x="600" y="400" width="200" height="200"/>
        <rect class="cls-1" x="800" y="400" width="200" height="200"/>
        <rect class="cls-1" x="1000" y="400" width="200" height="200"/>
        <rect class="cls-1" x="1200" y="400" width="200" height="200"/>
        <rect class="cls-1" x="1400" y="400" width="200" height="200"/>
        <rect class="cls-1" x="1600" y="400" width="200" height="200"/>
        <rect class="cls-1" x="1800" y="400" width="200" height="200"/>
        <rect class="cls-1" x="2000" y="400" width="200" height="200"/>
        <rect class="cls-1" x="2200" y="400" width="200" height="200"/>
        <rect class="cls-1" x="2400" y="400" width="200" height="200"/>
        <rect class="cls-1" x="2600" y="400" width="200" height="200"/>
        <rect class="cls-1" x="2800" y="400" width="200" height="200"/>
        <rect class="cls-1" x="3000" y="400" width="200" height="200"/>
        <rect class="cls-1" x="3200" y="400" width="200" height="200"/>
        <rect class="cls-1" x="3400" y="400" width="200" height="200"/>
        <rect class="cls-1" x="3600" y="400" width="200" height="200"/>
        <rect class="cls-1" x="3800" y="400" width="200" height="200"/>
        <rect class="cls-1" y="600" width="200" height="200"/>
        <rect class="cls-1" x="200" y="600" width="200" height="200"/>
        <rect class="cls-1" x="400" y="600" width="200" height="200"/>
        <rect class="cls-1" x="600" y="600" width="200" height="200"/>
        <rect class="cls-1" x="800" y="600" width="200" height="200"/>
        <rect class="cls-1" x="1000" y="600" width="200" height="200"/>
        <rect class="cls-1" x="1200" y="600" width="200" height="200"/>
        <rect class="cls-1" x="1400" y="600" width="200" height="200"/>
        <rect class="cls-1" x="1600" y="600" width="200" height="200"/>
        <rect class="cls-1" x="1800" y="600" width="200" height="200"/>
        <rect class="cls-1" x="2000" y="600" width="200" height="200"/>
        <rect class="cls-1" x="2200" y="600" width="200" height="200"/>
        <rect class="cls-1" x="2400" y="600" width="200" height="200"/>
        <rect class="cls-1" x="2600" y="600" width="200" height="200"/>
        <rect class="cls-1" x="2800" y="600" width="200" height="200"/>
        <rect class="cls-1" x="3000" y="600" width="200" height="200"/>
        <rect class="cls-1" x="3200" y="600" width="200" height="200"/>
        <rect class="cls-1" x="3400" y="600" width="200" height="200"/>
        <rect class="cls-1" x="3600" y="600" width="200" height="200"/>
        <rect class="cls-1" x="3800" y="600" width="200" height="200"/>
        <rect class="cls-1" y="800" width="200" height="200"/>
        <rect class="cls-1" x="200" y="800" width="200" height="200"/>
        <rect class="cls-1" x="400" y="800" width="200" height="200"/>
        <rect class="cls-1" x="600" y="800" width="200" height="200"/>
        <rect class="cls-1" x="800" y="800" width="200" height="200"/>
        <rect class="cls-1" x="1000" y="800" width="200" height="200"/>
        <rect class="cls-1" x="1200" y="800" width="200" height="200"/>
        <rect class="cls-1" x="1400" y="800" width="200" height="200"/>
        <rect class="cls-1" x="1600" y="800" width="200" height="200"/>
        <rect class="cls-1" x="1800" y="800" width="200" height="200"/>
        <rect class="cls-1" x="2000" y="800" width="200" height="200"/>
        <rect class="cls-1" x="2200" y="800" width="200" height="200"/>
        <rect class="cls-1" x="2400" y="800" width="200" height="200"/>
        <rect class="cls-1" x="2600" y="800" width="200" height="200"/>
        <rect class="cls-1" x="2800" y="800" width="200" height="200"/>
        <rect class="cls-1" x="3000" y="800" width="200" height="200"/>
        <rect class="cls-1" x="3200" y="800" width="200" height="200"/>
        <rect class="cls-1" x="3400" y="800" width="200" height="200"/>
        <rect class="cls-1" x="3600" y="800" width="200" height="200"/>
        <rect class="cls-1" x="3800" y="800" width="200" height="200"/>
        <rect class="cls-1" y="1000" width="200" height="200"/>
        <rect class="cls-1" x="200" y="1000" width="200" height="200"/>
        <rect class="cls-1" x="400" y="1000" width="200" height="200"/>
        <rect class="cls-1" x="600" y="1000" width="200" height="200"/>
        <rect class="cls-1" x="800" y="1000" width="200" height="200"/>
        <rect class="cls-1" x="1000" y="1000" width="200" height="200"/>
        <rect class="cls-1" x="1200" y="1000" width="200" height="200"/>
        <rect class="cls-1" x="1400" y="1000" width="200" height="200"/>
        <rect class="cls-1" x="1600" y="1000" width="200" height="200"/>
        <rect class="cls-1" x="1800" y="1000" width="200" height="200"/>
        <rect class="cls-1" x="2000" y="1000" width="200" height="200"/>
        <rect class="cls-1" x="2200" y="1000" width="200" height="200"/>
        <rect class="cls-1" x="2400" y="1000" width="200" height="200"/>
        <rect class="cls-1" x="2600" y="1000" width="200" height="200"/>
        <rect class="cls-1" x="2800" y="1000" width="200" height="200"/>
        <rect class="cls-1" x="3000" y="1000" width="200" height="200"/>
        <rect class="cls-1" x="3200" y="1000" width="200" height="200"/>
        <rect class="cls-1" x="3400" y="1000" width="200" height="200"/>
        <rect class="cls-1" x="3600" y="1000" width="200" height="200"/>
        <rect class="cls-1" x="3800" y="1000" width="200" height="200"/>
        <rect class="cls-1" y="1200" width="200" height="200"/>
        <rect class="cls-1" x="200" y="1200" width="200" height="200"/>
        <rect class="cls-1" x="400" y="1200" width="200" height="200"/>
        <rect class="cls-1" x="600" y="1200" width="200" height="200"/>
        <rect class="cls-1" x="800" y="1200" width="200" height="200"/>
        <rect class="cls-1" x="1000" y="1200" width="200" height="200"/>
        <rect class="cls-1" x="1200" y="1200" width="200" height="200"/>
        <rect class="cls-1" x="1400" y="1200" width="200" height="200"/>
        <rect class="cls-1" x="1600" y="1200" width="200" height="200"/>
        <rect class="cls-1" x="1800" y="1200" width="200" height="200"/>
        <rect class="cls-1" x="2000" y="1200" width="200" height="200"/>
        <rect class="cls-1" x="2200" y="1200" width="200" height="200"/>
        <rect class="cls-1" x="2400" y="1200" width="200" height="200"/>
        <rect class="cls-1" x="2600" y="1200" width="200" height="200"/>
        <rect class="cls-1" x="2800" y="1200" width="200" height="200"/>
        <rect class="cls-1" x="3000" y="1200" width="200" height="200"/>
        <rect class="cls-1" x="3200" y="1200" width="200" height="200"/>
        <rect class="cls-1" x="3400" y="1200" width="200" height="200"/>
        <rect class="cls-1" x="3600" y="1200" width="200" height="200"/>
        <rect class="cls-1" x="3800" y="1200" width="200" height="200"/>
        <rect class="cls-1" y="1400" width="200" height="200"/>
        <rect class="cls-1" x="200" y="1400" width="200" height="200"/>
        <rect class="cls-1" x="400" y="1400" width="200" height="200"/>
        <rect class="cls-1" x="600" y="1400" width="200" height="200"/>
        <rect class="cls-1" x="800" y="1400" width="200" height="200"/>
        <rect class="cls-1" x="1000" y="1400" width="200" height="200"/>
        <rect class="cls-1" x="1200" y="1400" width="200" height="200"/>
        <rect class="cls-1" x="1400" y="1400" width="200" height="200"/>
        <rect class="cls-1" x="1600" y="1400" width="200" height="200"/>
        <rect class="cls-1" x="1800" y="1400" width="200" height="200"/>
        <rect class="cls-1" x="2000" y="1400" width="200" height="200"/>
        <rect class="cls-1" x="2200" y="1400" width="200" height="200"/>
        <rect class="cls-1" x="2400" y="1400" width="200" height="200"/>
        <rect class="cls-1" x="2600" y="1400" width="200" height="200"/>
        <rect class="cls-1" x="2800" y="1400" width="200" height="200"/>
        <rect class="cls-1" x="3000" y="1400" width="200" height="200"/>
        <rect class="cls-1" x="3200" y="1400" width="200" height="200"/>
        <rect class="cls-1" x="3400" y="1400" width="200" height="200"/>
        <rect class="cls-1" x="3600" y="1400" width="200" height="200"/>
        <rect class="cls-1" x="3800" y="1400" width="200" height="200"/>
        <rect class="cls-1" y="1600" width="200" height="200"/>
        <rect class="cls-1" x="200" y="1600" width="200" height="200"/>
        <rect class="cls-1" x="400" y="1600" width="200" height="200"/>
        <rect class="cls-1" x="600" y="1600" width="200" height="200"/>
        <rect class="cls-1" x="800" y="1600" width="200" height="200"/>
        <rect class="cls-1" x="1000" y="1600" width="200" height="200"/>
        <rect class="cls-1" x="1200" y="1600" width="200" height="200"/>
        <rect class="cls-1" x="1400" y="1600" width="200" height="200"/>
        <rect class="cls-1" x="1600" y="1600" width="200" height="200"/>
        <rect class="cls-1" x="1800" y="1600" width="200" height="200"/>
        <rect class="cls-1" x="2000" y="1600" width="200" height="200"/>
        <rect class="cls-1" x="2200" y="1600" width="200" height="200"/>
        <rect class="cls-1" x="2400" y="1600" width="200" height="200"/>
        <rect class="cls-1" x="2600" y="1600" width="200" height="200"/>
        <rect class="cls-1" x="2800" y="1600" width="200" height="200"/>
        <rect class="cls-1" x="3000" y="1600" width="200" height="200"/>
        <rect class="cls-1" x="3200" y="1600" width="200" height="200"/>
        <rect class="cls-1" x="3400" y="1600" width="200" height="200"/>
        <rect class="cls-1" x="3600" y="1600" width="200" height="200"/>
        <rect class="cls-1" x="3800" y="1600" width="200" height="200"/>
        <rect class="cls-1" y="1800" width="200" height="200"/>
        <rect class="cls-1" x="200" y="1800" width="200" height="200"/>
        <rect class="cls-1" x="400" y="1800" width="200" height="200"/>
        <rect class="cls-1" x="600" y="1800" width="200" height="200"/>
        <rect class="cls-1" x="800" y="1800" width="200" height="200"/>
        <rect class="cls-1" x="1000" y="1800" width="200" height="200"/>
        <rect class="cls-1" x="1200" y="1800" width="200" height="200"/>
        <rect class="cls-1" x="1400" y="1800" width="200" height="200"/>
        <rect class="cls-1" x="1600" y="1800" width="200" height="200"/>
        <rect class="cls-1" x="1800" y="1800" width="200" height="200"/>
        <rect class="cls-1" x="2000" y="1800" width="200" height="200"/>
        <rect class="cls-1" x="2200" y="1800" width="200" height="200"/>
        <rect class="cls-1" x="2400" y="1800" width="200" height="200"/>
        <rect class="cls-1" x="2600" y="1800" width="200" height="200"/>
        <rect class="cls-1" x="2800" y="1800" width="200" height="200"/>
        <rect class="cls-1" x="3000" y="1800" width="200" height="200"/>
        <rect class="cls-1" x="3200" y="1800" width="200" height="200"/>
        <rect class="cls-1" x="3400" y="1800" width="200" height="200"/>
        <rect class="cls-1" x="3600" y="1800" width="200" height="200"/>
        <rect class="cls-1" x="3800" y="1800" width="200" height="200"/>
        <rect class="cls-1" y="2000" width="200" height="200"/>
        <rect class="cls-1" x="200" y="2000" width="200" height="200"/>
        <rect class="cls-1" x="400" y="2000" width="200" height="200"/>
        <rect class="cls-1" x="600" y="2000" width="200" height="200"/>
        <rect class="cls-1" x="800" y="2000" width="200" height="200"/>
        <rect class="cls-1" x="1000" y="2000" width="200" height="200"/>
        <rect class="cls-1" x="1200" y="2000" width="200" height="200"/>
        <rect class="cls-1" x="1400" y="2000" width="200" height="200"/>
        <rect class="cls-1" x="1600" y="2000" width="200" height="200"/>
        <rect class="cls-1" x="1800" y="2000" width="200" height="200"/>
        <rect class="cls-1" x="2000" y="2000" width="200" height="200"/>
        <rect class="cls-1" x="2200" y="2000" width="200" height="200"/>
        <rect class="cls-1" x="2400" y="2000" width="200" height="200"/>
        <rect class="cls-1" x="2600" y="2000" width="200" height="200"/>
        <rect class="cls-1" x="2800" y="2000" width="200" height="200"/>
        <rect class="cls-1" x="3000" y="2000" width="200" height="200"/>
        <rect class="cls-1" x="3200" y="2000" width="200" height="200"/>
        <rect class="cls-1" x="3400" y="2000" width="200" height="200"/>
        <rect class="cls-1" x="3600" y="2000" width="200" height="200"/>
        <rect class="cls-1" x="3800" y="2000" width="200" height="200"/>
        <rect class="cls-1" y="2200" width="200" height="200"/>
        <rect class="cls-1" x="200" y="2200" width="200" height="200"/>
        <rect class="cls-1" x="400" y="2200" width="200" height="200"/>
        <rect class="cls-1" x="600" y="2200" width="200" height="200"/>
        <rect class="cls-1" x="800" y="2200" width="200" height="200"/>
        <rect class="cls-1" x="1000" y="2200" width="200" height="200"/>
        <rect class="cls-1" x="1200" y="2200" width="200" height="200"/>
        <rect class="cls-1" x="1400" y="2200" width="200" height="200"/>
        <rect class="cls-1" x="1600" y="2200" width="200" height="200"/>
        <rect class="cls-1" x="1800" y="2200" width="200" height="200"/>
        <rect class="cls-1" x="2000" y="2200" width="200" height="200"/>
        <rect class="cls-1" x="2200" y="2200" width="200" height="200"/>
        <rect class="cls-1" x="2400" y="2200" width="200" height="200"/>
        <rect class="cls-1" x="2600" y="2200" width="200" height="200"/>
        <rect class="cls-1" x="2800" y="2200" width="200" height="200"/>
        <rect class="cls-1" x="3000" y="2200" width="200" height="200"/>
        <rect class="cls-1" x="3200" y="2200" width="200" height="200"/>
        <rect class="cls-1" x="3400" y="2200" width="200" height="200"/>
        <rect class="cls-1" x="3600" y="2200" width="200" height="200"/>
        <rect class="cls-1" x="3800" y="2200" width="200" height="200"/>
        <rect class="cls-1" y="2400" width="200" height="200"/>
        <rect class="cls-1" x="200" y="2400" width="200" height="200"/>
        <rect class="cls-1" x="400" y="2400" width="200" height="200"/>
        <rect class="cls-1" x="600" y="2400" width="200" height="200"/>
        <rect class="cls-1" x="800" y="2400" width="200" height="200"/>
        <rect class="cls-1" x="1000" y="2400" width="200" height="200"/>
        <rect class="cls-1" x="1200" y="2400" width="200" height="200"/>
        <rect class="cls-1" x="1400" y="2400" width="200" height="200"/>
        <rect class="cls-1" x="1600" y="2400" width="200" height="200"/>
        <rect class="cls-1" x="1800" y="2400" width="200" height="200"/>
        <rect class="cls-1" x="2000" y="2400" width="200" height="200"/>
        <rect class="cls-1" x="2200" y="2400" width="200" height="200"/>
        <rect class="cls-1" x="2400" y="2400" width="200" height="200"/>
        <rect class="cls-1" x="2600" y="2400" width="200" height="200"/>
        <rect class="cls-1" x="2800" y="2400" width="200" height="200"/>
        <rect class="cls-1" x="3000" y="2400" width="200" height="200"/>
        <rect class="cls-1" x="3200" y="2400" width="200" height="200"/>
        <rect class="cls-1" x="3400" y="2400" width="200" height="200"/>
        <rect class="cls-1" x="3600" y="2400" width="200" height="200"/>
        <rect class="cls-1" x="3800" y="2400" width="200" height="200"/>
        <rect class="cls-1" y="2600" width="200" height="200"/>
        <rect class="cls-1" x="200" y="2600" width="200" height="200"/>
        <rect class="cls-1" x="400" y="2600" width="200" height="200"/>
        <rect class="cls-1" x="600" y="2600" width="200" height="200"/>
        <rect class="cls-1" x="800" y="2600" width="200" height="200"/>
        <rect class="cls-1" x="1000" y="2600" width="200" height="200"/>
        <rect class="cls-1" x="1200" y="2600" width="200" height="200"/>
        <rect class="cls-1" x="1400" y="2600" width="200" height="200"/>
        <rect class="cls-1" x="1600" y="2600" width="200" height="200"/>
        <rect class="cls-1" x="1800" y="2600" width="200" height="200"/>
        <rect class="cls-1" x="2000" y="2600" width="200" height="200"/>
        <rect class="cls-1" x="2200" y="2600" width="200" height="200"/>
        <rect class="cls-1" x="2400" y="2600" width="200" height="200"/>
        <rect class="cls-1" x="2600" y="2600" width="200" height="200"/>
        <rect class="cls-1" x="2800" y="2600" width="200" height="200"/>
        <rect class="cls-1" x="3000" y="2600" width="200" height="200"/>
        <rect class="cls-1" x="3200" y="2600" width="200" height="200"/>
        <rect class="cls-1" x="3400" y="2600" width="200" height="200"/>
        <rect class="cls-1" x="3600" y="2600" width="200" height="200"/>
        <rect class="cls-1" x="3800" y="2600" width="200" height="200"/>
        <rect class="cls-1" y="2800" width="200" height="200"/>
        <rect class="cls-1" x="200" y="2800" width="200" height="200"/>
        <rect class="cls-1" x="400" y="2800" width="200" height="200"/>
        <rect class="cls-1" x="600" y="2800" width="200" height="200"/>
        <rect class="cls-1" x="800" y="2800" width="200" height="200"/>
        <rect class="cls-1" x="1000" y="2800" width="200" height="200"/>
        <rect class="cls-1" x="1200" y="2800" width="200" height="200"/>
        <rect class="cls-1" x="1400" y="2800" width="200" height="200"/>
        <rect class="cls-1" x="1600" y="2800" width="200" height="200"/>
        <rect class="cls-1" x="1800" y="2800" width="200" height="200"/>
        <rect class="cls-1" x="2000" y="2800" width="200" height="200"/>
        <rect class="cls-1" x="2200" y="2800" width="200" height="200"/>
        <rect class="cls-1" x="2400" y="2800" width="200" height="200"/>
        <rect class="cls-1" x="2600" y="2800" width="200" height="200"/>
        <rect class="cls-1" x="2800" y="2800" width="200" height="200"/>
        <rect class="cls-1" x="3000" y="2800" width="200" height="200"/>
        <rect class="cls-1" x="3200" y="2800" width="200" height="200"/>
        <rect class="cls-1" x="3400" y="2800" width="200" height="200"/>
        <rect class="cls-1" x="3600" y="2800" width="200" height="200"/>
        <rect class="cls-1" x="3800" y="2800" width="200" height="200"/>
        <rect class="cls-1" y="3000" width="200" height="200"/>
        <rect class="cls-1" x="200" y="3000" width="200" height="200"/>
        <rect class="cls-1" x="400" y="3000" width="200" height="200"/>
        <rect class="cls-1" x="600" y="3000" width="200" height="200"/>
        <rect class="cls-1" x="800" y="3000" width="200" height="200"/>
        <rect class="cls-1" x="1000" y="3000" width="200" height="200"/>
        <rect class="cls-1" x="1200" y="3000" width="200" height="200"/>
        <rect class="cls-1" x="1400" y="3000" width="200" height="200"/>
        <rect class="cls-1" x="1600" y="3000" width="200" height="200"/>
        <rect class="cls-1" x="1800" y="3000" width="200" height="200"/>
        <rect class="cls-1" x="2000" y="3000" width="200" height="200"/>
        <rect class="cls-1" x="2200" y="3000" width="200" height="200"/>
        <rect class="cls-1" x="2400" y="3000" width="200" height="200"/>
        <rect class="cls-1" x="2600" y="3000" width="200" height="200"/>
        <rect class="cls-1" x="2800" y="3000" width="200" height="200"/>
        <rect class="cls-1" x="3000" y="3000" width="200" height="200"/>
        <rect class="cls-1" x="3200" y="3000" width="200" height="200"/>
        <rect class="cls-1" x="3400" y="3000" width="200" height="200"/>
        <rect class="cls-1" x="3600" y="3000" width="200" height="200"/>
        <rect class="cls-1" x="3800" y="3000" width="200" height="200"/>
        <rect class="cls-1" y="3200" width="200" height="200"/>
        <rect class="cls-1" x="200" y="3200" width="200" height="200"/>
        <rect class="cls-1" x="400" y="3200" width="200" height="200"/>
        <rect class="cls-1" x="600" y="3200" width="200" height="200"/>
        <rect class="cls-1" x="800" y="3200" width="200" height="200"/>
        <rect class="cls-1" x="1000" y="3200" width="200" height="200"/>
        <rect class="cls-1" x="1200" y="3200" width="200" height="200"/>
        <rect class="cls-1" x="1400" y="3200" width="200" height="200"/>
        <rect class="cls-1" x="1600" y="3200" width="200" height="200"/>
        <rect class="cls-1" x="1800" y="3200" width="200" height="200"/>
        <rect class="cls-1" x="2000" y="3200" width="200" height="200"/>
        <rect class="cls-1" x="2200" y="3200" width="200" height="200"/>
        <rect class="cls-1" x="2400" y="3200" width="200" height="200"/>
        <rect class="cls-1" x="2600" y="3200" width="200" height="200"/>
        <rect class="cls-1" x="2800" y="3200" width="200" height="200"/>
        <rect class="cls-1" x="3000" y="3200" width="200" height="200"/>
        <rect class="cls-1" x="3200" y="3200" width="200" height="200"/>
        <rect class="cls-1" x="3400" y="3200" width="200" height="200"/>
        <rect class="cls-1" x="3600" y="3200" width="200" height="200"/>
        <rect class="cls-1" x="3800" y="3200" width="200" height="200"/>
        <rect class="cls-1" y="3400" width="200" height="200"/>
        <rect class="cls-1" x="200" y="3400" width="200" height="200"/>
        <rect class="cls-1" x="400" y="3400" width="200" height="200"/>
        <rect class="cls-1" x="600" y="3400" width="200" height="200"/>
        <rect class="cls-1" x="800" y="3400" width="200" height="200"/>
        <rect class="cls-1" x="1000" y="3400" width="200" height="200"/>
        <rect class="cls-1" x="1200" y="3400" width="200" height="200"/>
        <rect class="cls-1" x="1400" y="3400" width="200" height="200"/>
        <rect class="cls-1" x="1600" y="3400" width="200" height="200"/>
        <rect class="cls-1" x="1800" y="3400" width="200" height="200"/>
        <rect class="cls-1" x="2000" y="3400" width="200" height="200"/>
        <rect class="cls-1" x="2200" y="3400" width="200" height="200"/>
        <rect class="cls-1" x="2400" y="3400" width="200" height="200"/>
        <rect class="cls-1" x="2600" y="3400" width="200" height="200"/>
        <rect class="cls-1" x="2800" y="3400" width="200" height="200"/>
        <rect class="cls-1" x="3000" y="3400" width="200" height="200"/>
        <rect class="cls-1" x="3200" y="3400" width="200" height="200"/>
        <rect class="cls-1" x="3400" y="3400" width="200" height="200"/>
        <rect class="cls-1" x="3600" y="3400" width="200" height="200"/>
        <rect class="cls-1" x="3800" y="3400" width="200" height="200"/>
        <rect class="cls-1" y="3600" width="200" height="200"/>
        <rect class="cls-1" x="200" y="3600" width="200" height="200"/>
        <rect class="cls-1" x="400" y="3600" width="200" height="200"/>
        <rect class="cls-1" x="600" y="3600" width="200" height="200"/>
        <rect class="cls-1" x="800" y="3600" width="200" height="200"/>
        <rect class="cls-1" x="1000" y="3600" width="200" height="200"/>
        <rect class="cls-1" x="1200" y="3600" width="200" height="200"/>
        <rect class="cls-1" x="1400" y="3600" width="200" height="200"/>
        <rect class="cls-1" x="1600" y="3600" width="200" height="200"/>
        <rect class="cls-1" x="1800" y="3600" width="200" height="200"/>
        <rect class="cls-1" x="2000" y="3600" width="200" height="200"/>
        <rect class="cls-1" x="2200" y="3600" width="200" height="200"/>
        <rect class="cls-1" x="2400" y="3600" width="200" height="200"/>
        <rect class="cls-1" x="2600" y="3600" width="200" height="200"/>
        <rect class="cls-1" x="2800" y="3600" width="200" height="200"/>
        <rect class="cls-1" x="3000" y="3600" width="200" height="200"/>
        <rect class="cls-1" x="3200" y="3600" width="200" height="200"/>
        <rect class="cls-1" x="3400" y="3600" width="200" height="200"/>
        <rect class="cls-1" x="3600" y="3600" width="200" height="200"/>
        <rect class="cls-1" x="3800" y="3600" width="200" height="200"/>
        <rect class="cls-1" y="3800" width="200" height="200"/>
        <rect class="cls-1" x="200" y="3800" width="200" height="200"/>
        <rect class="cls-1" x="400" y="3800" width="200" height="200"/>
        <rect class="cls-1" x="600" y="3800" width="200" height="200"/>
        <rect class="cls-1" x="800" y="3800" width="200" height="200"/>
        <rect class="cls-1" x="1000" y="3800" width="200" height="200"/>
        <rect class="cls-1" x="1200" y="3800" width="200" height="200"/>
        <rect class="cls-1" x="1400" y="3800" width="200" height="200"/>
        <rect class="cls-1" x="1600" y="3800" width="200" height="200"/>
        <rect class="cls-1" x="1800" y="3800" width="200" height="200"/>
        <rect class="cls-1" x="2000" y="3800" width="200" height="200"/>
        <rect class="cls-1" x="2200" y="3800" width="200" height="200"/>
        <rect class="cls-1" x="2400" y="3800" width="200" height="200"/>
        <rect class="cls-1" x="2600" y="3800" width="200" height="200"/>
        <rect class="cls-1" x="2800" y="3800" width="200" height="200"/>
        <rect class="cls-1" x="3000" y="3800" width="200" height="200"/>
        <rect class="cls-1" x="3200" y="3800" width="200" height="200"/>
        <rect class="cls-1" x="3400" y="3800" width="200" height="200"/>
        <rect class="cls-1" x="3600" y="3800" width="200" height="200"/>
        <rect class="cls-1" x="3800" y="3800" width="200" height="200"/>
      </g>
      <g>
        <circle class="cls-3" cx="2000" cy="2001.93" r="2000"/>
        <circle class="cls-3" cx="2000" cy="2001.71" r="1799.85"/>
        <circle class="cls-3" cx="2000" cy="2001.5" r="1599.7"/>
        <circle class="cls-3" cx="2000" cy="2001.28" r="1399.54"/>
        <circle class="cls-3" cx="2000" cy="2001.07" r="1199.39"/>
        <circle class="cls-3" cx="2000" cy="2000.86" r="999.24"/>
        <circle class="cls-3" cx="2000" cy="2000.64" r="799.09"/>
        <circle class="cls-3" cx="2000" cy="2000.43" r="598.94"/>
        <circle class="cls-3" cx="2000" cy="2000.21" r="398.78"/>
        <circle class="cls-3" cx="2000" cy="2000" r="198.63"/>
      </g>
      <line class="cls-3" x1="2000" y1="-145.88" x2="2000" y2="4145.88"/>
      <line class="cls-3" x1="4145.88" y1="2000" x2="-145.88" y2="2000"/>
      <line class="cls-3" x1="4121.32" y1="-121.32" x2="-121.32" y2="4121.32"/>
      <line class="cls-3" x1="-121.32" y1="-121.32" x2="4121.32" y2="4121.32"/>
      <line class="cls-3" x1="4805.13" y1="936.39" x2="-805.13" y2="3063.61"/>
      <line class="cls-3" x1="-805.13" y1="936.39" x2="4805.13" y2="3063.61"/>
      <line class="cls-3" x1="3113.22" y1="-785.81" x2="886.78" y2="4785.81"/>
      <line class="cls-3" x1="886.78" y1="-785.81" x2="3113.22" y2="4785.81"/>
    </g>
  </g>
</svg>